<svg width="221" height="46" viewBox="0 0 221 46" fill="none" xmlns="http://www.w3.org/2000/svg">
<path d="M58.6135 11.8182H65.4402L72.6504 29.4091H72.9572L80.1674 11.8182H86.9941V38H81.6248V20.9588H81.4075L74.6319 37.8722H70.9757L64.2001 20.8949H63.9828V38H58.6135V11.8182ZM91.4526 38V18.3636H96.8986V38H91.4526ZM94.1884 15.8324C93.3787 15.8324 92.6841 15.5639 92.1046 15.027C91.5336 14.4815 91.248 13.8295 91.248 13.071C91.248 12.321 91.5336 11.6776 92.1046 11.1406C92.6841 10.5952 93.3787 10.3224 94.1884 10.3224C94.998 10.3224 95.6884 10.5952 96.2594 11.1406C96.839 11.6776 97.1287 12.321 97.1287 13.071C97.1287 13.8295 96.839 14.4815 96.2594 15.027C95.6884 15.5639 94.998 15.8324 94.1884 15.8324ZM106.707 26.6477V38H101.261V18.3636H106.452V21.8281H106.682C107.116 20.6861 107.845 19.7827 108.868 19.1179C109.89 18.4446 111.131 18.108 112.588 18.108C113.952 18.108 115.14 18.4062 116.155 19.0028C117.169 19.5994 117.957 20.4517 118.52 21.5597C119.082 22.6591 119.363 23.9716 119.363 25.4972V38H113.917V26.4688C113.926 25.267 113.619 24.3295 112.997 23.6562C112.375 22.9744 111.518 22.6335 110.427 22.6335C109.694 22.6335 109.047 22.7912 108.484 23.1065C107.93 23.4219 107.496 23.8821 107.18 24.4872C106.873 25.0838 106.716 25.804 106.707 26.6477ZM130.892 38.3196C129.4 38.3196 128.049 37.9361 126.839 37.169C125.637 36.3935 124.683 35.2557 123.975 33.7557C123.276 32.2472 122.927 30.3977 122.927 28.2074C122.927 25.9574 123.289 24.0866 124.014 22.5952C124.738 21.0952 125.701 19.9744 126.903 19.233C128.113 18.483 129.438 18.108 130.879 18.108C131.978 18.108 132.894 18.2955 133.627 18.6705C134.369 19.0369 134.965 19.4972 135.417 20.0511C135.877 20.5966 136.227 21.1335 136.465 21.6619H136.632V11.8182H142.065V38H136.695V34.8551H136.465C136.21 35.4006 135.847 35.9418 135.379 36.4787C134.919 37.0071 134.318 37.446 133.576 37.7955C132.843 38.1449 131.948 38.3196 130.892 38.3196ZM132.617 33.9858C133.495 33.9858 134.237 33.7472 134.842 33.2699C135.455 32.7841 135.924 32.1065 136.248 31.2372C136.58 30.3679 136.747 29.3494 136.747 28.1818C136.747 27.0142 136.585 26 136.261 25.1392C135.937 24.2784 135.468 23.6136 134.855 23.1449C134.241 22.6761 133.495 22.4418 132.617 22.4418C131.722 22.4418 130.968 22.6847 130.355 23.1705C129.741 23.6562 129.276 24.3295 128.961 25.1903C128.646 26.0511 128.488 27.0483 128.488 28.1818C128.488 29.3239 128.646 30.3338 128.961 31.2116C129.285 32.081 129.749 32.7628 130.355 33.2571C130.968 33.7429 131.722 33.9858 132.617 33.9858ZM146.645 38V11.8182H156.974C158.96 11.8182 160.652 12.1974 162.05 12.956C163.447 13.706 164.513 14.75 165.246 16.0881C165.987 17.4176 166.358 18.9517 166.358 20.6903C166.358 22.429 165.983 23.9631 165.233 25.2926C164.483 26.6222 163.396 27.6577 161.973 28.3991C160.558 29.1406 158.845 29.5114 156.834 29.5114H150.25V25.0753H155.939C157.004 25.0753 157.882 24.892 158.572 24.5256C159.271 24.1506 159.791 23.6349 160.132 22.9787C160.481 22.3139 160.656 21.5511 160.656 20.6903C160.656 19.821 160.481 19.0625 160.132 18.4148C159.791 17.7585 159.271 17.2514 158.572 16.8935C157.873 16.527 156.987 16.3438 155.913 16.3438H152.18V38H146.645ZM175.297 11.8182V38H169.851V11.8182H175.297ZM192.252 29.6392V18.3636H197.698V38H192.469V34.4332H192.265C191.822 35.5838 191.084 36.5085 190.053 37.2074C189.03 37.9062 187.782 38.2557 186.307 38.2557C184.995 38.2557 183.84 37.9574 182.843 37.3608C181.846 36.7642 181.066 35.9162 180.503 34.8168C179.949 33.7173 179.668 32.4006 179.66 30.8665V18.3636H185.106V29.8949C185.114 31.054 185.425 31.9702 186.039 32.6435C186.653 33.3168 187.475 33.6534 188.506 33.6534C189.162 33.6534 189.776 33.5043 190.347 33.206C190.918 32.8991 191.378 32.4474 191.728 31.8509C192.086 31.2543 192.26 30.517 192.252 29.6392ZM210.901 45.7727C209.137 45.7727 207.624 45.5298 206.362 45.044C205.11 44.5668 204.112 43.9148 203.371 43.0881C202.629 42.2614 202.148 41.3324 201.926 40.3011L206.963 39.6236C207.117 40.0156 207.36 40.3821 207.692 40.723C208.024 41.0639 208.463 41.3366 209.009 41.5412C209.563 41.7543 210.236 41.8608 211.029 41.8608C212.213 41.8608 213.189 41.571 213.956 40.9915C214.732 40.4205 215.119 39.4616 215.119 38.1151V34.5227H214.889C214.651 35.0682 214.293 35.5838 213.816 36.0696C213.338 36.5554 212.725 36.9517 211.975 37.2585C211.225 37.5653 210.33 37.7188 209.29 37.7188C207.816 37.7188 206.473 37.3778 205.263 36.696C204.061 36.0057 203.102 34.9531 202.387 33.5384C201.679 32.1151 201.325 30.3168 201.325 28.1435C201.325 25.919 201.688 24.0611 202.412 22.5696C203.137 21.0781 204.1 19.9616 205.301 19.2202C206.512 18.4787 207.837 18.108 209.277 18.108C210.377 18.108 211.297 18.2955 212.039 18.6705C212.78 19.0369 213.377 19.4972 213.828 20.0511C214.289 20.5966 214.642 21.1335 214.889 21.6619H215.094V18.3636H220.502V38.1918C220.502 39.8622 220.093 41.2599 219.274 42.3849C218.456 43.5099 217.323 44.3537 215.874 44.9162C214.433 45.4872 212.776 45.7727 210.901 45.7727ZM211.016 33.6278C211.894 33.6278 212.635 33.4105 213.24 32.9759C213.854 32.5327 214.323 31.902 214.646 31.0838C214.979 30.2571 215.145 29.2685 215.145 28.1179C215.145 26.9673 214.983 25.9702 214.659 25.1264C214.335 24.2741 213.867 23.6136 213.253 23.1449C212.639 22.6761 211.894 22.4418 211.016 22.4418C210.121 22.4418 209.367 22.6847 208.753 23.1705C208.139 23.6477 207.675 24.3125 207.36 25.1648C207.044 26.017 206.887 27.0014 206.887 28.1179C206.887 29.2514 207.044 30.2315 207.36 31.0582C207.683 31.8764 208.148 32.5114 208.753 32.9631C209.367 33.4062 210.121 33.6278 211.016 33.6278Z" fill="white"/>
<path d="M24.4794 7C21.6367 7 18.9588 7.73073 16.6105 8.92297L29.8764 17.9225L32.9663 9.2691C30.4944 7.88457 27.5693 7 24.4794 7ZM13.1498 11.3459C10.0187 14.1534 8 18.0378 8 22.4222C8 23.3837 8.0824 24.2683 8.24719 25.1913L20.9775 16.6533L13.1086 11.3459H13.1498ZM36.3446 11.8459L31.3184 26.2682H40.3408C40.6704 25.0375 41 23.7683 41 22.4222C41 18.3071 39.1873 14.615 36.3446 11.8459ZM16.8989 24.2298L9.68914 29.0372C11.9551 33.3831 16.2809 36.6906 21.5543 37.5752L16.8989 24.2298ZM23.3258 30.1141L25.9213 37.6906C31.4007 37.2291 36.0562 34.3062 38.6517 30.1141H23.3258Z" fill="#4A6CF7"/>
</svg>
